<svg id="Layer_1" data-name="Layer 1" xmlns="http://www.w3.org/2000/svg" viewBox="0 0 1000 800"><defs><style>.cls-1{fill:#f2b705;}.cls-2{fill:#53cbc8;}</style></defs><path class="cls-1" d="M494.78,27.62C341,27.62,216.3,152.3,216.3,306.1a283.09,283.09,0,0,0,4.93,52.44l36-24.65c63.25-43.37,165.83-43.37,229.08,0l37.76,25.86L544.5,373.8c57,39.07,149.36,39.07,206.31,0l16.79-11.48c30.87-150.79-66.34-298-217.12-328.93a279.11,279.11,0,0,0-55.59-5.67Z"/><path class="cls-2" d="M651.27,473.39C609.32,473.39,569.2,462,539,441.3l-58.16-39.86c-27.85-19.14-65.24-29.68-105.2-29.68s-77.36,10.49-105.2,29.68l-37.61,25.75a16.34,16.34,0,0,1-18.46-27h0L252,374.48c33.25-22.81,77.14-35.34,123.66-35.34S466,351.67,499.29,374.48l58.16,39.86a179.75,179.75,0,0,0,187.65,0l22.08-15.1a16.33,16.33,0,0,1,18.46,26.95L763.56,441.3C733.19,462.06,693.23,473.39,651.27,473.39Z"/><path class="cls-2" d="M374.42,590.34V433a63.12,63.12,0,0,1,.42-9.91,17.72,17.72,0,0,1,17.62-15.73,17.14,17.14,0,0,1,16.63,15.73,96.4,96.4,0,0,1,.58,16.47V753.29c-.95,11.64-8.24,19.3-18.05,19.09s-16.88-8.18-16.93-20V647.82Z"/><path class="cls-2" d="M341.33,511.15v78.2c0,13.37-7.13,22.23-17.25,21.92s-17.78-9.34-17.83-22.08V432.85c0-13.68,8-22.91,18.35-22.39s16.57,8.81,16.63,22.5C341.38,459,341.33,485.09,341.33,511.15Z"/><path class="cls-2" d="M442.91,511.05v-55c0-12.75,6.77-21,16.84-21s17.83,8.5,17.94,20.5q.57,56.13,0,112.18c0,12.75-7.5,20.4-17.84,20.3s-16.94-7.92-17-21V511Z"/><path class="cls-2" d="M238.07,522.48v-55c0-12.74,6.76-21,16.83-21s17.83,8.5,17.94,20.51q.53,56.11,0,112.18c0,12.74-7.55,20.4-17.83,20.29s-16.94-7.92-17-21V522.43Z"/><rect class="cls-2" x="511.04" y="475.7" width="34.56" height="64.4" rx="17.25"/><rect class="cls-2" x="579.43" y="501.87" width="34.56" height="202.17" rx="17.25"/><rect class="cls-2" x="647.34" y="508.37" width="34.56" height="177" rx="17.25"/><rect class="cls-2" x="716.2" y="492.12" width="34.56" height="95.97" rx="17.25"/></svg>